<svg width="18" height="28" viewBox="0 0 18 28" fill="none" xmlns="http://www.w3.org/2000/svg">
<path fill-rule="evenodd" clip-rule="evenodd" d="M11.5723 1.22693C11.4517 1.10239 11.3022 1.02155 11.1238 0.984378C10.6756 0.877902 10.2407 0.935885 9.81921 1.15839C9.40753 1.37363 9.01172 1.7099 8.63171 2.16715C8.25317 2.61588 7.89447 3.15991 7.55566 3.79926C7.22546 4.43994 6.92267 5.12891 6.64734 5.86609C6.38049 6.60465 6.14093 7.36515 5.92859 8.14749C5.71619 8.92981 5.54218 9.69193 5.40649 10.4338C5.27087 11.1757 5.17749 11.8717 5.12665 12.5218C5.07574 13.1719 5.06982 13.7326 5.10889 14.2039C5.15588 14.7906 5.25189 15.2623 5.39697 15.6188C5.5506 15.9768 5.71289 16.2527 5.88385 16.4467C6.05481 16.6407 6.22241 16.7727 6.38678 16.8427C6.55115 16.9128 6.67542 16.9589 6.75964 16.9811C7.05518 17.0545 7.3584 17.0238 7.66943 16.889C7.98053 16.7543 8.289 16.5533 8.59485 16.2861C8.90063 16.0188 9.20117 15.7025 9.49634 15.337C9.79279 14.963 10.0693 14.577 10.3257 14.179C10.5083 13.9014 10.6802 13.6261 10.8414 13.3532C10.4504 14.8149 10.0034 16.4852 9.96808 16.6133C9.93011 16.7512 9.89032 16.8905 9.84869 17.0311C9.82184 17.1219 9.79419 17.2132 9.76581 17.3051C9.06952 17.7646 8.38971 18.2311 7.72626 18.7047C7.06146 19.1868 6.46832 19.7154 5.94672 20.2906C5.42511 20.8657 4.99939 21.5 4.66962 22.1934C4.32983 22.894 4.13751 23.6883 4.09265 24.5763C4.06805 25.1165 4.11047 25.5664 4.21991 25.9261C4.31946 26.293 4.45264 26.5862 4.61951 26.8059C4.78503 27.0341 4.96936 27.1995 5.17242 27.3021C5.37415 27.4132 5.56049 27.4823 5.73169 27.5096C6.15826 27.5863 6.56659 27.5021 6.95667 27.2571C7.34668 27.012 7.71167 26.6489 8.05164 26.1678C8.40009 25.6879 8.72931 25.1085 9.03931 24.4294C9.35651 23.7603 9.65747 23.0272 9.94238 22.2301C9.95349 22.1992 9.9646 22.1683 9.97565 22.1373H17.0625V5.72434H11.587C11.7219 5.33573 11.8333 4.95212 11.9213 4.57346C12.0622 3.96405 12.1323 3.41352 12.1316 2.92197C12.1328 2.694 12.1112 2.47119 12.0669 2.25348C12.0311 2.03717 11.9699 1.84311 11.8832 1.67136C11.8063 1.49237 11.7028 1.34424 11.5723 1.22693ZM11.4382 6.13059C11.402 6.22467 11.3644 6.31903 11.3254 6.41367C11.0777 7.03238 10.7836 7.63935 10.4431 8.23453C10.1039 8.82117 9.73804 9.35529 9.3454 9.83686C8.95416 10.3098 8.54523 10.7011 8.11859 11.0105C7.69196 11.3199 7.26794 11.5025 6.84662 11.5583C6.73682 12.1376 6.65814 12.6867 6.61053 13.2057C6.56439 13.7161 6.54913 14.17 6.56482 14.5674C6.59045 14.9576 6.65332 15.2792 6.75348 15.5321C6.85364 15.785 7.00006 15.9399 7.19287 15.997C7.4613 16.0748 7.75494 15.9943 8.07373 15.7555C8.40253 15.5095 8.72717 15.1794 9.04761 14.7654C9.37799 14.3441 9.69806 13.8773 10.0078 13.3649C10.3189 12.8441 10.5939 12.3569 10.8329 11.9035C11.0818 11.4429 11.2806 11.049 11.4292 10.7216C11.5864 10.3956 11.6771 10.2126 11.701 10.1725C11.7642 10.0509 11.8321 9.98273 11.9047 9.96796C11.9271 9.96201 11.9483 9.95908 11.9684 9.95923C11.9861 9.95624 12.0043 9.95481 12.023 9.95487C12.0418 9.95496 12.061 9.95655 12.0807 9.95969C12.1578 9.97196 12.2427 9.98987 12.3355 10.0134C12.5468 10.0646 12.7147 10.1397 12.8394 10.2385C12.974 10.3301 13.071 10.4377 13.1302 10.5612C13.1995 10.6776 13.2367 10.802 13.2419 10.9345C13.2471 11.0669 13.226 11.1996 13.1785 11.3324C12.9538 11.9724 12.731 12.6829 12.5101 13.4638C12.2891 14.2448 12.0621 15.0643 11.8289 15.9223C12.2244 15.643 12.6028 15.361 12.9641 15.0763C13.3267 14.783 13.665 14.4771 13.9791 14.1585C14.2945 13.8314 14.5769 13.4902 14.8265 13.135C15.0776 12.7713 15.2885 12.3837 15.4594 11.9721C15.5014 11.8735 15.5594 11.8125 15.6333 11.7892C15.6691 11.774 15.7036 11.7666 15.7369 11.7669C15.7737 11.7673 15.809 11.777 15.8428 11.7962C15.9072 11.8328 15.954 11.8973 15.9831 11.9897C16.0123 12.0821 16.0074 12.1954 15.9685 12.3296C15.8127 12.8665 15.5855 13.3568 15.2866 13.8007C14.9963 14.2459 14.6538 14.6609 14.259 15.0456C13.8643 15.4303 13.4295 15.791 12.9546 16.1279C12.4882 16.4661 12.0056 16.7973 11.5063 17.1215C11.2632 17.9867 11.0109 18.8548 10.7493 19.7258C10.548 20.4232 10.3375 21.0916 10.1178 21.731H16.6562V6.13059H11.4382ZM10.301 2.76209C10.5486 2.52948 10.7815 2.41736 10.9996 2.42575C11.0252 2.42984 11.063 2.44025 11.113 2.457C11.1644 2.46518 11.2081 2.49408 11.2441 2.54367C11.2886 2.59467 11.3205 2.66996 11.3397 2.76953C11.3676 2.87052 11.3678 3.00659 11.3406 3.17777C11.286 3.52011 11.1943 3.93112 11.0652 4.4108C10.9526 4.82947 10.8135 5.26731 10.6479 5.72434H8.5683C8.65546 5.51407 8.74426 5.30884 8.83466 5.10871C9.07867 4.56833 9.32465 4.09851 9.57251 3.69922C9.82043 3.29987 10.0632 2.98752 10.301 2.76209ZM8.40436 6.13059C8.3136 6.36151 8.22467 6.59818 8.13757 6.84061C7.91693 7.4549 7.7099 8.0933 7.51666 8.7558C7.32477 9.40973 7.16058 10.0549 7.02411 10.6914C7.38965 10.6004 7.74158 10.402 8.0799 10.0961C8.42816 9.78293 8.75171 9.40442 9.05054 8.96057C9.35797 8.5181 9.63727 8.03162 9.88849 7.50119C10.1142 7.04148 10.3163 6.58457 10.4948 6.13059H8.40436ZM5.82642 26.4189C5.98181 26.4349 6.1507 26.3389 6.33301 26.131C6.52252 25.933 6.7171 25.648 6.91675 25.2762C7.11499 24.9128 7.32056 24.4761 7.53351 23.9659C7.7464 23.4557 7.96173 22.902 8.17969 22.3048C8.19995 22.2492 8.22021 22.1934 8.24042 22.1373H5.54663C5.43793 22.339 5.33929 22.5465 5.25073 22.7598C4.9845 23.3844 4.84143 24.09 4.82147 24.8767C4.80542 25.4182 4.89795 25.8015 5.09906 26.0266C5.29028 26.2589 5.53271 26.3897 5.82642 26.4189ZM5.78412 21.731C5.93231 21.4966 6.09515 21.2708 6.27283 21.0533C6.69653 20.5416 7.17975 20.0701 7.72235 19.6387C8.27216 19.2173 8.84552 18.8127 9.44263 18.4251C9.35181 18.7244 9.26031 19.0227 9.16803 19.32C9.05383 19.688 8.93866 20.0544 8.8222 20.4194C8.6781 20.8713 8.53223 21.3085 8.38458 21.731H5.78412ZM13.939 8.98987C13.8616 9.47562 13.4045 9.80661 12.9181 9.72913C12.4316 9.65168 12.1 9.1951 12.1774 8.70932C12.2547 8.22357 12.7117 7.89258 13.1982 7.97007C13.6847 8.04752 14.0164 8.50412 13.939 8.98987ZM0.649567 5.72434H6.18524C6.16724 5.7714 6.14941 5.81864 6.13171 5.86609C6.09998 5.95395 6.0686 6.04212 6.03766 6.13059H1.05579V21.731H4.39301C4.31848 21.8641 4.2478 21.9995 4.18091 22.1373H0.649567V5.72434Z" fill="#363636"/>
</svg>
